<?xml version="1.0" encoding="iso-8859-1"?>
<!-- Generator: Adobe Illustrator 19.0.0, SVG Export Plug-In . SVG Version: 6.00 Build 0)  -->
<svg version="1.1" id="Capa_1" xmlns="http://www.w3.org/2000/svg" xmlns:xlink="http://www.w3.org/1999/xlink" x="0px" y="0px"
	 viewBox="0 0 344.8 344.8" style="enable-background:new 0 0 344.8 344.8;" xml:space="preserve">
<g>
	<g>
		<path d="M172.4,0C77.2,0,0,77.2,0,172.4s77.2,172.4,172.4,172.4s172.4-77.2,172.4-172.4S267.6,0,172.4,0z M172.4,330
			c-87.2,0-157.6-70.8-157.6-157.6c0-87.2,70.8-157.6,157.6-157.6c87.2,0,157.6,70.8,157.6,157.6C330,259.6,259.6,330,172.4,330z"/>
	</g>
</g>
<g>
	<g>
		<path d="M142.4,130.8c-3.6-18-20-31.2-38.4-31.2c-18.8,0-35.2,13.2-38.4,32c-0.4,4,2,8,6,8.8c0.4,0,0.8,0,1.2,0
			c3.6,0,6.4-2.4,7.2-6c2.4-11.6,12.4-20,24-20c11.6,0,21.6,8.4,24,19.6c0.8,4,4.8,6.4,8.8,5.6S143.2,134.8,142.4,130.8z"/>
	</g>
</g>
<g>
	<g>
		<path d="M277.2,130.8c-3.6-18-20-31.2-38.4-31.2c-18.8,0-35.2,13.2-38.4,32c-0.4,4,2,8,6,8.8c0.4,0,0.8,0,1.2,0
			c3.6,0,6.4-2.4,7.2-6c2.4-11.6,12.4-20,24-20c11.6,0,21.6,8.4,24,19.6c0.8,4,4.8,6.4,8.8,5.6S278,134.8,277.2,130.8z"/>
	</g>
</g>
<g>
	<g>
		<path d="M275.6,187.6c-4.4-1.2-9.2,1.6-10.4,6c-8.8,32.8-48,56.8-93.2,56.8s-84.4-24-93.2-56.8c-1.2-4.4-5.6-7.2-10.4-6
			c-4.4,1.2-7.2,5.6-6,10.4c10.8,40,56.8,69.2,109.2,69.2c52.8,0,98.8-29.2,109.2-69.2C282.8,193.6,280,188.8,275.6,187.6z"/>
	</g>
</g>
<g>
</g>
<g>
</g>
<g>
</g>
<g>
</g>
<g>
</g>
<g>
</g>
<g>
</g>
<g>
</g>
<g>
</g>
<g>
</g>
<g>
</g>
<g>
</g>
<g>
</g>
<g>
</g>
<g>
</g>
</svg>
