<svg height="512pt" viewBox="0 0 512 512" width="512pt" xmlns="http://www.w3.org/2000/svg"><path d="m482 174.785156v-26.339844c17.160156-6.046874 30-22.511718 30-42.445312h-30c0 8.289062-6.710938 15-15 15s-15-6.710938-15-15 6.710938-15 15-15v-30c-24.871094 0-45 20.128906-45 45 0 19.675781 12.597656 36.3125 30 42.445312v26.339844l-16.820312 16.820313c-8.5 8.5-13.179688 19.800781-13.179688 31.820312v77.574219h-31v-27.296875c0-62.46875-35.285156-119.617187-91.210938-147.578125l-28.789062-14.394531v-23.285157c18.777344-6.617187 30-24.378906 30-43.445312h-30c0 9.660156-6.875 16-15 16-8.140625 0-15-6.359375-15-16 0-8.289062 6.710938-15 15-15v-30c-24.871094 0-45 20.128906-45 45 0 19.042969 11.199219 36.820312 30 43.445312v23.285157l-28.789062 14.394531c-55.875 27.9375-91.210938 85.054688-91.210938 147.578125v27.296875h-31v-77.574219c0-12.019531-4.679688-23.320312-13.179688-31.820312l-16.820312-16.820313v-26.339844c17.160156-6.046874 30-22.511718 30-42.445312h-30c0 8.289062-6.710938 15-15 15s-15-6.710938-15-15 6.710938-15 15-15v-30c-24.871094 0-45 20.128906-45 45 0 19.675781 12.597656 36.3125 30 42.445312v26.339844l-16.820312 16.820313c-8.5 8.5-13.179688 19.800781-13.179688 31.820312v288.574219h512v-288.574219c0-12.019531-4.679688-23.320312-13.179688-31.820312zm-60 195-15-15-23.03125 23.035156c-14.167969 14.164063-21.96875 33-21.96875 53.03125v51.148438h-31v-38.917969c0-28.589843-15.886719-54.296875-41.460938-67.082031l-33.539062-16.769531-33.542969 16.769531c-25.570312 12.785156-41.457031 38.492188-41.457031 67.082031v38.917969h-31v-51.148438c0-20.03125-7.800781-38.867187-21.96875-53.03125l-23.03125-23.035156-15 15v-38.785156h332zm-121 112.214844h-90v-38.917969c0-17.15625 9.53125-32.578125 24.875-40.25l20.125-10.0625 20.125 10.066407c15.34375 7.667968 24.875 23.089843 24.875 40.246093zm-75.375-329.042969 30.375-15.1875 30.375 15.1875c26.011719 13.007813 46.453125 33.441407 59.3125 58.042969h-179.375c12.859375-24.601562 33.300781-45.035156 59.3125-58.042969zm-74.625 120.746094c0-11.210937 1.359375-22.171875 3.957031-32.703125h202.085938c2.597656 10.53125 3.957031 21.492188 3.957031 32.703125v27.296875h-30v-30h-30v30h-30v-30h-30v30h-30v-30h-30v30h-30zm-121-50.277344c0-7.628906 3.957031-10.167969 15-21.210937 10.984375 10.984375 15 13.582031 15 21.210937v17.574219h-30zm0 258.574219v-211h30v211zm60-51.148438c0-13.992187 5.585938-24.226562 15-33.636718 9.355469 9.351562 15 19.566406 15 33.636718v51.148438h-30zm332 51.148438h-30v-51.148438c0-13.992187 5.585938-24.226562 15-33.636718 9.355469 9.351562 15 19.566406 15 33.636718zm60 0h-30c0-43.273438 0-168.40625 0-211h30zm-30-241v-17.574219c0-4.003906 1.5625-7.773437 4.394531-10.605469l10.605469-10.605468 10.605469 10.605468c2.832031 2.832032 4.394531 6.597657 4.394531 10.605469v17.574219zm0 0"/></svg>
